<svg width="717" height="371" viewBox="0 0 717 371" fill="none" xmlns="http://www.w3.org/2000/svg">
<g clip-path="url(#clip0_452_4)">
<path d="M458.87 354.36H18.6C13.7535 354.355 9.10695 352.427 5.67993 349C2.25292 345.573 0.325294 340.927 0.32 336.08V20.2C0.325294 15.3535 2.25292 10.707 5.67993 7.27994C9.10695 3.85292 13.7535 1.92529 18.6 1.92H458.87C463.72 1.92265 468.371 3.85048 471.8 7.27995C475.23 10.7094 477.157 15.36 477.16 20.21V336.08C477.155 340.928 475.226 345.576 471.797 349.004C468.367 352.431 463.718 354.357 458.87 354.36ZM18.6 11.55C16.304 11.5526 14.1029 12.4659 12.4794 14.0894C10.8559 15.7129 9.94265 17.914 9.94 20.21V336.08C9.94265 338.376 10.8559 340.577 12.4794 342.201C14.1029 343.824 16.304 344.737 18.6 344.74H458.87C461.166 344.737 463.367 343.824 464.991 342.201C466.614 340.577 467.527 338.376 467.53 336.08V20.2C467.527 17.904 466.614 15.7029 464.991 14.0794C463.367 12.4559 461.166 11.5426 458.87 11.54L18.6 11.55Z" fill="#E6E6E6"/>
<path d="M458.87 350.03H18.6C14.9019 350.025 11.3567 348.553 8.74171 345.938C6.12672 343.323 4.65529 339.778 4.65 336.08V20.2C4.65529 16.5019 6.12672 12.9567 8.74171 10.3417C11.3567 7.72672 14.9019 6.25529 18.6 6.25H458.87C462.572 6.25265 466.121 7.72428 468.738 10.3417C471.356 12.9591 472.827 16.5084 472.83 20.21V336.08C472.825 339.78 471.352 343.327 468.735 345.942C466.118 348.557 462.57 350.027 458.87 350.03Z" fill="white"/>
<path d="M236.58 202.01C262.316 202.01 283.18 181.146 283.18 155.41C283.18 129.674 262.316 108.81 236.58 108.81C210.844 108.81 189.98 129.674 189.98 155.41C189.98 181.146 210.844 202.01 236.58 202.01Z" fill="#FFB8B8"/>
<path d="M184.6 110.58C184.95 105.22 188.49 99.75 199.73 96.88C199.73 96.88 219.03 72.21 245.25 85.15C245.25 85.15 257.96 82.96 267.39 96.15C267.39 96.15 276.74 90.65 280.68 100.41C280.68 100.41 291.64 120.34 287.6 140.67C283.56 161 281.5 163.53 281.5 163.53C281.5 163.53 286.65 121.48 257.02 124.4C227.39 127.32 203.54 116.9 196.83 139.7C191.26 158.65 191.96 168.49 191.96 168.49C191.96 168.49 173.33 149.59 179.66 134.71C182.91 127.11 184.06 118.83 184.6 110.58Z" fill="#2F2E41"/>
<path d="M109.86 349.55H367.62C365.9 329.89 364.77 315.25 364.77 310.31C364.77 288.49 346.92 264.68 346.92 264.68L340.52 261.15L287.16 244.5L273.36 226.56C271.913 224.677 270.049 223.155 267.915 222.114C265.781 221.073 263.434 220.541 261.06 220.56L217.42 220.88C213.583 220.911 209.896 222.373 207.08 224.98L180.06 250.05L140.44 268.97L140.37 268.9L139.96 269.2L134.08 273.44L130.3 276.17C130.3 276.17 120.37 288.08 112.44 323.79C111.25 329.16 110.41 338.15 109.86 349.55Z" fill="#ED703B"/>
<path d="M698.27 370.01H551.35C546.503 370.005 541.857 368.077 538.43 364.65C535.003 361.223 533.075 356.577 533.07 351.73V251.1C533.075 246.253 535.003 241.607 538.43 238.18C541.857 234.753 546.503 232.825 551.35 232.82H698.27C703.118 232.823 707.767 234.749 711.197 238.176C714.626 241.604 716.555 246.252 716.56 251.1V351.73C716.552 356.577 714.622 361.222 711.193 364.647C707.764 368.072 703.117 369.997 698.27 370V370.01ZM551.35 242.44C549.054 242.443 546.853 243.356 545.229 244.979C543.606 246.603 542.693 248.804 542.69 251.1V351.73C542.693 354.026 543.606 356.227 545.229 357.851C546.853 359.474 549.054 360.387 551.35 360.39H698.27C700.566 360.387 702.767 359.474 704.391 357.851C706.014 356.227 706.927 354.026 706.93 351.73V251.1C706.927 248.804 706.014 246.603 704.391 244.979C702.767 243.356 700.566 242.443 698.27 242.44H551.35Z" fill="#E6E6E6"/>
<path d="M698.27 365.68H551.35C547.652 365.675 544.107 364.203 541.492 361.588C538.877 358.973 537.405 355.428 537.4 351.73V251.1C537.405 247.402 538.877 243.857 541.492 241.242C544.107 238.627 547.652 237.155 551.35 237.15H698.27C701.97 237.153 705.518 238.623 708.135 241.238C710.752 243.853 712.225 247.4 712.23 251.1V351.73C712.225 355.43 710.752 358.977 708.135 361.592C705.518 364.207 701.97 365.677 698.27 365.68Z" fill="white"/>
<path d="M638.59 269.9C639.44 264.6 637.03 260.7 630.66 258.5C624.32 253 614.96 251.68 609.33 260.49C607.06 260.354 604.826 261.1 603.093 262.572C601.361 264.044 600.263 266.128 600.03 268.39C594.87 274.39 600.6 296.43 602.3 304.82L611.37 304.73L629.47 304.56L638.59 304.46L642.06 284.78C644.18 279.06 643.32 274.04 638.59 269.9ZM671.51 352.78C673.878 351.269 676.386 349.99 679 348.96L653.22 318.35L636.18 313.99L635.77 313.75L607.03 314.85L606.91 314.73L588.79 323.59L563 353.4C565.544 354.401 567.989 355.639 570.3 357.1L567.64 367.21H586.08L590.99 360.08H591.24V359.71L594.69 354.71C594.77 358.75 594.66 362.91 594.38 367.21H651.75C651.65 363.64 651.64 360.11 651.64 356.58L658.05 365.89C658.53 365.19 659.05 364.53 659.56 363.86L660.82 367.21H675.52L672 353.8C671.9 353.433 671.734 353.087 671.51 352.78ZM698.27 138.11H551.35C546.502 138.105 541.854 136.176 538.426 132.747C534.999 129.317 533.073 124.668 533.07 119.82V19.2C533.073 14.3517 534.999 9.70266 538.426 6.27348C541.854 2.8443 546.502 0.915302 551.35 0.910004H698.27C703.12 0.912653 707.771 2.84048 711.2 6.26994C714.63 9.69941 716.557 14.35 716.56 19.2V119.82C716.557 124.67 714.63 129.321 711.2 132.75C707.771 136.18 703.12 138.107 698.27 138.11ZM551.35 10.54C549.054 10.5426 546.853 11.4559 545.229 13.0794C543.606 14.7029 542.693 16.904 542.69 19.2V119.82C542.69 122.118 543.602 124.321 545.226 125.947C546.85 127.573 549.052 128.487 551.35 128.49H698.27C700.568 128.487 702.77 127.573 704.394 125.947C706.018 124.321 706.93 122.118 706.93 119.82V19.2C706.927 16.904 706.014 14.7029 704.391 13.0794C702.767 11.4559 700.566 10.5426 698.27 10.54H551.35Z" fill="#E6E6E6"/>
<path d="M698.27 133.78H551.35C547.65 133.775 544.103 132.302 541.488 129.685C538.873 127.068 537.403 123.52 537.4 119.82V19.2C537.403 15.5001 538.873 11.9524 541.488 9.33524C544.103 6.7181 547.65 5.24529 551.35 5.24H698.27C701.972 5.24265 705.521 6.71428 708.138 9.33172C710.756 11.9492 712.227 15.4984 712.23 19.2V119.82C712.227 123.522 710.756 127.071 708.138 129.688C705.521 132.306 701.972 133.777 698.27 133.78Z" fill="white"/>
<path d="M606.25 54.86C606.684 59.3389 608.666 63.5262 611.856 66.7001C615.046 69.874 619.243 71.8356 623.724 72.2467C628.205 72.6578 632.689 71.4928 636.403 68.9523C640.117 66.4119 642.829 62.6552 644.07 58.33C644.69 57.68 651.63 50.27 649.12 44.37C647.881 41.1685 647.192 37.781 647.08 34.35C646.93 32.13 645.46 29.85 640.79 28.67C640.79 28.67 632.79 18.43 621.9 23.8C621.9 23.8 616.63 22.89 612.71 28.36C612.71 28.36 608.83 26.08 607.2 30.13C607.2 30.13 602.65 38.4 604.32 46.83C604.811 49.5411 605.455 52.2221 606.25 54.86ZM677.02 124.84C673.73 110.02 669.62 105.08 669.62 105.08L668.04 103.94L665.6 102.19L665.43 102.06L665.4 102.09L648.96 94.23L637.74 83.83C636.571 82.7496 635.042 82.1435 633.45 82.13L615.35 82C614.364 81.9911 613.389 82.2113 612.502 82.6434C611.615 83.0755 610.841 83.7076 610.24 84.49L604.51 91.93L582.36 98.84L579.71 100.31C579.71 100.31 572.3 110.19 572.3 119.25C572.3 121.3 571.83 127.37 571.11 135.53H678.1C678.003 131.945 677.642 128.372 677.02 124.84Z" fill="#E6E6E6"/>
<path d="M606.56 254H414.48C408.144 253.992 402.069 251.471 397.589 246.991C393.109 242.511 390.588 236.436 390.58 230.1V98.54C390.585 92.202 393.105 86.125 397.585 81.6425C402.066 77.1599 408.142 74.6379 414.48 74.63H606.56C612.898 74.6353 618.975 77.1547 623.458 81.6354C627.94 86.1161 630.462 92.192 630.47 98.53V230.1C630.462 236.436 627.941 242.511 623.461 246.991C618.981 251.471 612.906 253.992 606.57 254H606.56ZM414.48 87.21C411.478 87.2153 408.6 88.411 406.478 90.5349C404.356 92.6589 403.163 95.5376 403.16 98.54V230.1C403.165 233.101 404.36 235.977 406.481 238.099C408.603 240.22 411.479 241.415 414.48 241.42H606.56C609.562 241.417 612.441 240.224 614.565 238.102C616.689 235.98 617.885 233.102 617.89 230.1V98.54C617.887 95.5359 616.693 92.6556 614.569 90.5314C612.444 88.4072 609.564 87.2127 606.56 87.21H414.48Z" fill="#E6E6E6"/>
<path d="M606.56 80.29H414.48C409.641 80.2953 405.003 82.2198 401.581 85.6411C398.16 89.0625 396.235 93.7014 396.23 98.54V230.1C396.238 234.937 398.164 239.573 401.585 242.992C405.006 246.412 409.643 248.335 414.48 248.34H606.56C611.397 248.335 616.034 246.412 619.455 242.992C622.876 239.573 624.802 234.937 624.81 230.1V98.54C624.805 93.7014 622.88 89.0625 619.459 85.6411C616.037 82.2198 611.399 80.2953 606.56 80.29Z" fill="white"/>
<path d="M544.31 135.29C552.594 135.29 559.31 128.574 559.31 120.29C559.31 112.006 552.594 105.29 544.31 105.29C536.026 105.29 529.31 112.006 529.31 120.29C529.31 128.574 536.026 135.29 544.31 135.29Z" fill="#2F2E41"/>
<path d="M513.5 186.26C534.487 186.26 551.5 169.247 551.5 148.26C551.5 127.273 534.487 110.26 513.5 110.26C492.513 110.26 475.5 127.273 475.5 148.26C475.5 169.247 492.513 186.26 513.5 186.26Z" fill="#2F2E41"/>
<path d="M506.9 188.57C523.955 188.57 537.78 174.745 537.78 157.69C537.78 140.635 523.955 126.81 506.9 126.81C489.845 126.81 476.02 140.635 476.02 157.69C476.02 174.745 489.845 188.57 506.9 188.57Z" fill="#9E616A"/>
<path d="M495.25 119.24C501.248 117.195 507.686 116.798 513.889 118.093C520.093 119.387 525.835 122.324 530.515 126.597C535.195 130.871 538.641 136.323 540.492 142.383C542.344 148.444 542.533 154.891 541.04 161.05C524.82 161.49 508.03 160.85 492.96 151.32L491.2 140.99L486.81 149.96C481.37 150.89 475.98 151.5 471.82 146.6C472.99 140.388 475.769 134.592 479.881 129.791C483.993 124.99 489.292 121.352 495.25 119.24Z" fill="#2F2E41"/>
<path d="M566.8 83.58C577.95 81.18 590.17 86.2 596.98 95.35C603.79 104.51 605.16 117.25 601.08 127.9C596.92 138.77 587.93 146.93 579.52 154.99C571.12 163.04 562.66 172.03 560.14 183.39C558.321 191.576 559.822 200.15 564.316 207.231C568.809 214.311 575.928 219.321 584.11 221.16C573.58 223.16 562.61 225.14 552.28 222.32C541.94 219.51 532.49 210.35 533.08 199.66C533.51 191.95 538.78 185.51 543.35 179.29C550.804 169.163 557.008 158.173 561.83 146.56C564.13 141.01 566.15 135.09 565.5 129.12C564.914 124.677 562.917 120.539 559.802 117.317C556.688 114.094 552.621 111.957 548.2 111.22L545.44 107.34C546.36 95.96 555.64 85.97 566.79 83.58H566.8Z" fill="#2F2E41"/>
<path d="M577.74 247.49C575.74 227.11 564.44 227.91 564.44 227.91L534.6 222.08L521.53 200.38L488.73 199.1L477.04 219.58L453.04 222.58L453.02 222.92C450.64 223.1 442.06 224.98 440.34 242.49C440.18 244.1 439.96 246.07 439.68 248.34H577.83L577.74 247.49Z" fill="#2F2E41"/>
<path d="M4.65 20.68C4.65 12.7105 11.1105 6.25 19.08 6.25H40.7436V47.212H4.65V20.68Z" fill="#F00000"/>
<path d="M25.4341 30.2859V31.9026H20.4923V30.2859H22.1824V23.8192C22.0844 24.2601 21.9252 24.603 21.7048 24.848C21.4843 25.0807 21.2516 25.246 21.0066 25.344C20.7617 25.442 20.5412 25.5032 20.3453 25.5277C20.1493 25.5399 20.0207 25.5461 19.9595 25.5461V23.5068C20.033 23.5191 20.1922 23.5191 20.4371 23.5068C20.6821 23.4823 20.9454 23.4089 21.2271 23.2864C21.521 23.1639 21.7782 22.968 21.9987 22.6985C22.2192 22.4291 22.3416 22.0494 22.3661 21.5595H24.0196V30.2859H25.4341Z" fill="white"/>
<path d="M396.159 99.054C396.159 88.5606 404.666 80.054 415.159 80.054H419.735V106.81H396.159V99.054Z" fill="#FF9A9A"/>
<path d="M406.159 96.852V95.832C406.159 95.832 406.259 95.78 406.459 95.676C406.667 95.564 406.927 95.416 407.239 95.232C407.551 95.04 407.879 94.824 408.223 94.584C408.567 94.336 408.883 94.072 409.171 93.792C409.459 93.504 409.679 93.208 409.831 92.904C410.015 92.536 410.071 92.212 409.999 91.932C409.935 91.652 409.787 91.436 409.555 91.284C409.323 91.124 409.047 91.044 408.727 91.044C408.295 91.044 407.951 91.188 407.695 91.476C407.439 91.764 407.351 92.208 407.431 92.808L406.291 92.652C406.235 92.1 406.311 91.628 406.519 91.236C406.735 90.844 407.047 90.544 407.455 90.336C407.863 90.12 408.331 90.012 408.859 90.012C409.291 90.012 409.679 90.092 410.023 90.252C410.367 90.412 410.643 90.632 410.851 90.912C411.067 91.192 411.191 91.512 411.223 91.872C411.255 92.232 411.171 92.616 410.971 93.024C410.819 93.328 410.607 93.62 410.335 93.9C410.071 94.172 409.783 94.42 409.471 94.644C409.167 94.868 408.867 95.064 408.571 95.232C408.283 95.392 408.031 95.524 407.815 95.628C407.599 95.724 407.455 95.78 407.383 95.796H411.343V96.852H406.159Z" fill="black"/>
<path d="M537.4 18.91C537.4 11.178 543.668 4.91 551.4 4.91H560.976V31.666H537.4V18.91Z" fill="#FF9A9A"/>
<path d="M550.208 21.786C549.672 21.786 549.192 21.694 548.768 21.51C548.344 21.326 548.008 21.05 547.76 20.682C547.52 20.306 547.4 19.842 547.4 19.29L548.576 19.122C548.592 19.642 548.752 20.042 549.056 20.322C549.368 20.594 549.76 20.73 550.232 20.73C550.64 20.73 550.976 20.622 551.24 20.406C551.512 20.182 551.648 19.902 551.648 19.566C551.648 19.302 551.58 19.098 551.444 18.954C551.308 18.802 551.136 18.694 550.928 18.63C550.728 18.558 550.528 18.522 550.328 18.522H549.524V17.886H550.352C550.68 17.886 550.96 17.818 551.192 17.682C551.432 17.546 551.552 17.322 551.552 17.01C551.552 16.642 551.424 16.35 551.168 16.134C550.912 15.918 550.568 15.81 550.136 15.81C549.792 15.81 549.512 15.882 549.296 16.026C549.08 16.17 548.916 16.346 548.804 16.554C548.7 16.762 548.644 16.962 548.636 17.154L547.544 16.974C547.544 16.846 547.584 16.666 547.664 16.434C547.744 16.194 547.876 15.95 548.06 15.702C548.252 15.446 548.512 15.23 548.84 15.054C549.176 14.878 549.596 14.79 550.1 14.79C550.908 14.79 551.536 14.966 551.984 15.318C552.432 15.662 552.656 16.13 552.656 16.722C552.656 17.114 552.544 17.45 552.32 17.73C552.104 18.01 551.784 18.178 551.36 18.234C551.784 18.29 552.128 18.466 552.392 18.762C552.656 19.05 552.788 19.406 552.788 19.83C552.788 20.238 552.676 20.59 552.452 20.886C552.236 21.174 551.932 21.398 551.54 21.558C551.148 21.71 550.704 21.786 550.208 21.786Z" fill="black"/>
<rect width="64.2337" height="40.962" transform="translate(41.699 6.25)" fill="#F00000"/>
<path d="M84.9097 30.3961H90.6232V31.9026H83.0542V21.5595H90.4395V23.1762H84.9097V25.8951H89.1535V27.4383H84.9097V30.3961Z" fill="white"/>
<path d="M79.5775 21.5595H81.6351L78.2181 31.9026H75.0949L71.6778 21.5595H73.7171L76.6381 31.1126L79.5775 21.5595Z" fill="white"/>
<path d="M70.1941 30.3043V31.9026H65.5829V30.3043H66.9791V23.1762H65.5829V21.5595H70.1941V23.1762H68.8346V30.3043H70.1941Z" fill="white"/>
<path d="M57.0084 31.9026V21.5595H58.8823V30.3043H63.9896V31.9026H57.0084Z" fill="white"/>
</g>
<defs>
<clipPath id="clip0_452_4">
<rect width="717" height="371" fill="white"/>
</clipPath>
</defs>
</svg>
