<svg xmlns="http://www.w3.org/2000/svg" data-name="Layer 1" viewBox="0 0 749.47 551.45"><path fill="#e6e6e6" d="M463.87 443.36H23.6a18.3 18.3 0 0 1-18.28-18.28V109.2A18.3 18.3 0 0 1 23.6 90.92h440.27a18.3 18.3 0 0 1 18.29 18.29v315.87a18.3 18.3 0 0 1-18.29 18.28ZM23.6 100.55a8.67 8.67 0 0 0-8.66 8.66v315.87a8.67 8.67 0 0 0 8.66 8.66h440.27a8.67 8.67 0 0 0 8.66-8.66V109.2a8.67 8.67 0 0 0-8.66-8.66Z"/><circle cx="234.38" cy="516.03" r="35.42" fill="#e6e6e6"/><circle cx="234.38" cy="516.03" r="27.16" fill="#fff"/><path fill="#ed703b" d="M247.99 530.86a1.23 1.23 0 0 1-.88-.36l-27.21-27.22a1.24 1.24 0 0 1 1.75-1.74l27.21 27.2a1.24 1.24 0 0 1-.87 2.12Z"/><path fill="#ed703b" d="M249.74 518.65a2.49 2.49 0 0 0 0-2.7 26.2 26.2 0 0 0-7.68-7.76 19.45 19.45 0 0 0-10.51-3.26 17.51 17.51 0 0 0-5.56.92.3.3 0 0 0-.12.5l3.66 3.66a.31.31 0 0 0 .3.08 7.42 7.42 0 0 1 8.96 5.45v.04a16.3 16.3 0 0 0 4.17 7.87l1.16 1.16a.31.31 0 0 0 .42.02 26.58 26.58 0 0 0 5.2-5.98Zm-12.67 3.11a7.42 7.42 0 0 1-7.42-7.42v-.02a4.9 4.9 0 0 0-1.37-3.52l-3.67-3.67a.31.31 0 0 0-.42-.02 30.91 30.91 0 0 0-5.23 5.85 2.47 2.47 0 0 0-.05 2.75 25.82 25.82 0 0 0 7.6 7.78 19.16 19.16 0 0 0 10.53 3.22 18.42 18.42 0 0 0 5.62-.9.3.3 0 0 0 .12-.5l-3.67-3.68a.31.31 0 0 0-.3-.08 7.42 7.42 0 0 1-1.74.21Z"/><circle cx="99.98" cy="516.03" r="35.42" fill="#e6e6e6"/><circle cx="99.98" cy="516.03" r="27.16" fill="#fff"/><path fill="#ed703b" d="M110.41 533.35c-1.5 0-3.62-.55-6.8-2.32a44.23 44.23 0 0 1-10.68-8 40.55 40.55 0 0 1-8.03-10.68c-2.85-5.18-2.36-7.9-1.82-9.05a7.23 7.23 0 0 1 2.84-3.04 13.63 13.63 0 0 1 2.2-1.18.9.9 0 0 0 .22-.1 2.07 2.07 0 0 1 1.7-.15 4.97 4.97 0 0 1 1.61 1.24 26.8 26.8 0 0 1 4.04 5.99 5.96 5.96 0 0 1 .79 2.45 3.87 3.87 0 0 1-.99 2.3l-.3.4c-.59.77-.72 1-.63 1.4.17.8 2.78 1.5 4.9 3.6s3.1 5 3.9 5.18c.42.09.65-.05 1.45-.66l.35-.27a3.9 3.9 0 0 1 2.34-1.04 5.6 5.6 0 0 1 2.47.86 29.53 29.53 0 0 1 5.96 4 4.97 4.97 0 0 1 1.24 1.61 2.09 2.09 0 0 1-.15 1.7l-.1.22a13.64 13.64 0 0 1-1.18 2.2 7.23 7.23 0 0 1-3.04 2.84 5.21 5.21 0 0 1-2.29.5Z"/><circle cx="369.82" cy="516.03" r="35.42" fill="#e6e6e6"/><circle cx="369.82" cy="516.03" r="27.16" fill="#fff"/><path fill="#ed703b" d="M379.72 510.96a1.24 1.24 0 0 0-1.24 1.23v2.48c0 4.78-3.88 6.18-8.66 6.18s-8.66-1.4-8.66-6.18v-2.48a1.24 1.24 0 1 0-2.47 0v2.48a11.14 11.14 0 0 0 9.9 11.06v5.02a1.24 1.24 0 0 0 1.23 1.24 1.24 1.24 0 0 0 1.24-1.24v-5.02a11.14 11.14 0 0 0 9.9-11.06v-2.48a1.24 1.24 0 0 0-1.24-1.23Z"/><path fill="#ed703b" d="M369.82 517.35a9.28 9.28 0 0 1-4.37-1 2.9 2.9 0 0 1-1.81-2.36v-4.6c-.02-1.83 2.73-3.31 6.13-3.32h.05c3.38-.02 6.15 1.44 6.19 3.25v4.67c.01 1.85-2.75 3.35-6.19 3.36Z"/><path fill="#fff" d="M463.87 439.03H23.6a13.97 13.97 0 0 1-13.95-13.95V109.2A13.97 13.97 0 0 1 23.6 95.25h440.27a13.97 13.97 0 0 1 13.96 13.96v315.87a13.97 13.97 0 0 1-13.96 13.95Z"/><circle cx="241.58" cy="244.41" r="46.6" fill="#ffb8b8" data-name="ab6171fa-7d69-4734-b81c-8dff60f9761b"/><path fill="#2f2e41" d="M189.6 199.58c.35-5.36 3.89-10.83 15.13-13.7 0 0 19.3-24.67 45.52-11.73 0 0 12.71-2.19 22.14 11 0 0 9.35-5.5 13.29 4.26 0 0 10.96 19.93 6.92 40.26s-6.1 22.86-6.1 22.86 5.15-42.05-24.48-39.13-53.48-7.5-60.19 15.3c-5.57 18.95-4.87 28.79-4.87 28.79s-18.63-18.9-12.3-33.78c3.25-7.6 4.4-15.88 4.94-24.13Z" data-name="bf427902-b9bf-4946-b5d7-5c1c7e04535e"/><path fill="#ed703b" d="M114.86 438.55h257.76c-1.72-19.66-2.85-34.3-2.85-39.24 0-21.82-17.85-45.63-17.85-45.63l-6.4-3.53-53.36-16.65-13.8-17.94a15.36 15.36 0 0 0-12.3-6l-43.64.32a15.4 15.4 0 0 0-10.34 4.1l-27.02 25.07-39.62 18.92-.07-.07-.41.3-5.88 4.24-3.78 2.73s-9.93 11.91-17.86 47.62c-1.19 5.37-2.03 14.36-2.58 25.76Z"/><path fill="#cacaca" d="M748.38 39.92H1.08a1.1 1.1 0 0 1 0-2.22h747.3a1.1 1.1 0 0 1 0 2.22Z"/><ellipse cx="25.5" cy="12.2" fill="#3f3d56" rx="11.93" ry="12.2"/><ellipse cx="66.71" cy="12.2" fill="#3f3d56" rx="11.93" ry="12.2"/><ellipse cx="107.93" cy="12.2" fill="#3f3d56" rx="11.93" ry="12.2"/><path fill="#3f3d56" d="M723.69 7.46H694.4a2.22 2.22 0 0 1 0-4.43h29.29a2.22 2.22 0 0 1 0 4.43Zm0 8.32H694.4a2.22 2.22 0 0 1 0-4.44h29.29a2.22 2.22 0 0 1 0 4.44Zm0 8.32H694.4a2.22 2.22 0 0 1 0-4.44h29.29a2.22 2.22 0 0 1 0 4.43Z"/><path fill="#e6e6e6" d="M703.27 459.01H556.35a18.3 18.3 0 0 1-18.28-18.28V340.1a18.3 18.3 0 0 1 18.28-18.28h146.92a18.3 18.3 0 0 1 18.29 18.28v100.63A18.3 18.3 0 0 1 703.27 459ZM556.35 331.44a8.67 8.67 0 0 0-8.66 8.66v100.63a8.67 8.67 0 0 0 8.66 8.66h146.92a8.67 8.67 0 0 0 8.66-8.66V340.1a8.67 8.67 0 0 0-8.66-8.66Z"/><path fill="#fff" d="M703.27 454.68H556.35a13.97 13.97 0 0 1-13.95-13.95V340.1a13.97 13.97 0 0 1 13.95-13.95h146.92a13.97 13.97 0 0 1 13.96 13.95v100.63a13.97 13.97 0 0 1-13.96 13.95Z"/><path fill="#e6e6e6" d="M643.59 358.9c.85-5.3-1.56-9.2-7.93-11.4-6.34-5.5-15.7-6.82-21.33 1.99a8.82 8.82 0 0 0-9.3 7.9c-5.16 6 .57 28.04 2.27 36.43l9.07-.09 18.1-.17 9.12-.1 3.47-19.68c2.12-5.72 1.26-10.74-3.47-14.88Zm32.92 82.88a43.68 43.68 0 0 1 7.49-3.82l-25.78-30.61-17.04-4.36-.41-.24-28.74 1.1-.12-.12-18.12 8.86L568 442.4a43.38 43.38 0 0 1 7.3 3.7l-2.66 10.11h18.44l4.91-7.13h.25v-.37l3.45-5c.08 4.04-.03 8.2-.31 12.5h57.37c-.1-3.57-.11-7.1-.11-10.63l6.41 9.31c.48-.7 1-1.36 1.51-2.03l1.26 3.35h14.7L677 442.8a3.13 3.13 0 0 0-.49-1.02Zm26.76-214.67H556.35a18.3 18.3 0 0 1-18.28-18.29V108.2a18.3 18.3 0 0 1 18.28-18.29h146.92a18.3 18.3 0 0 1 18.29 18.29v100.62a18.3 18.3 0 0 1-18.29 18.29ZM556.35 99.54a8.67 8.67 0 0 0-8.66 8.66v100.62a8.67 8.67 0 0 0 8.66 8.67h146.92a8.67 8.67 0 0 0 8.66-8.67V108.2a8.67 8.67 0 0 0-8.66-8.66Z"/><path fill="#fff" d="M703.27 222.78H556.35a13.97 13.97 0 0 1-13.95-13.96V108.2a13.97 13.97 0 0 1 13.95-13.96h146.92a13.97 13.97 0 0 1 13.96 13.96v100.62a13.97 13.97 0 0 1-13.96 13.96Z"/><path fill="#e6e6e6" d="M611.25 143.86a19.33 19.33 0 0 0 37.82 3.47c.62-.65 7.56-8.06 5.05-13.96a30.52 30.52 0 0 1-2.04-10.02c-.15-2.22-1.62-4.5-6.29-5.68 0 0-8-10.24-18.89-4.87 0 0-5.27-.91-9.19 4.56 0 0-3.88-2.28-5.51 1.77 0 0-4.55 8.27-2.88 16.7a72.67 72.67 0 0 0 1.93 8.03Zm70.77 69.98c-3.29-14.82-7.4-19.76-7.4-19.76l-1.58-1.14-2.44-1.75-.17-.13-.03.03-16.44-7.86-11.22-10.4a6.4 6.4 0 0 0-4.29-1.7l-18.1-.13a6.37 6.37 0 0 0-5.11 2.49l-5.73 7.44-22.15 6.91-2.65 1.47s-7.41 9.88-7.41 18.94c0 2.05-.47 8.12-1.19 16.28H683.1a72.97 72.97 0 0 0-1.08-10.69Z"/><path fill="#e6e6e6" d="M611.56 363H419.48a23.93 23.93 0 0 1-23.9-23.9V207.54a23.93 23.93 0 0 1 23.9-23.91h192.08a23.93 23.93 0 0 1 23.91 23.9V339.1a23.93 23.93 0 0 1-23.9 23.9ZM419.48 196.21a11.34 11.34 0 0 0-11.32 11.33V339.1a11.34 11.34 0 0 0 11.32 11.32h192.08a11.34 11.34 0 0 0 11.33-11.32V207.54a11.34 11.34 0 0 0-11.33-11.33Z"/><path fill="#fff" d="M611.56 189.29H419.48a18.27 18.27 0 0 0-18.25 18.25V339.1a18.27 18.27 0 0 0 18.25 18.24h192.08a18.27 18.27 0 0 0 18.25-18.24V207.54a18.27 18.27 0 0 0-18.25-18.25Z"/><circle cx="549.31" cy="229.29" r="15" fill="#2f2e41"/><circle cx="518.5" cy="257.26" r="38" fill="#2f2e41"/><circle cx="511.9" cy="266.69" r="30.88" fill="#9e616a"/><path fill="#2f2e41" d="M500.25 228.24a35.37 35.37 0 0 1 45.79 41.81c-16.22.44-33.01-.2-48.08-9.73l-1.76-10.33-4.39 8.97c-5.44.93-10.83 1.54-14.99-3.36a36.12 36.12 0 0 1 23.43-27.36Z"/><path fill="#2f2e41" d="M571.8 192.58c11.15-2.4 23.37 2.62 30.18 11.77 6.81 9.16 8.18 21.9 4.1 32.55-4.16 10.87-13.15 19.03-21.56 27.09-8.4 8.05-16.86 17.04-19.38 28.4a31.67 31.67 0 0 0 23.97 37.77c-10.53 2-21.5 3.98-31.83 1.16-10.34-2.81-19.79-11.97-19.2-22.66.43-7.71 5.7-14.15 10.27-20.37a156.36 156.36 0 0 0 18.48-32.73c2.3-5.55 4.32-11.47 3.67-17.44a20.92 20.92 0 0 0-17.3-17.9l-2.76-3.88c.92-11.38 10.2-21.37 21.35-23.76Z"/><path fill="#2f2e41" d="M582.74 356.49c-2-20.38-13.3-19.58-13.3-19.58l-29.84-5.83-13.07-21.7-32.8-1.28-11.69 20.48-24 3-.02.34c-2.38.18-10.96 2.06-12.68 19.57-.16 1.61-.38 3.58-.66 5.85h138.15l-.09-.85Z"/></svg>
